External Loads File
version=1
nRows=69
nColumns=13
Range=5.000000e-03-10 seconds
endheader
time 	forceRightX 	forceRightY 	forceRightZ 	pointRightX 	pointRightY 	pointRightZ 	forceLeftX 	forceLeftY 	forceLeftZ 	pointLeftX 	pointLeftY 	pointLeftZ 		
7.505000 -57.339540 619.118919 -0.000000 0.473289 0.309168 -0.109781 -108.302302 -197.704435 -0.000000 0.175926 0.284297 -0.356695
7.510000 -61.172532 633.575506 -0.000000 0.472597 0.298044 -0.109735 -100.039495 -178.524152 -0.000000 0.176857 0.294722 -0.356726
7.515000 -60.707800 649.424935 -0.000000 0.471307 0.286868 -0.109613 -88.485498 -159.281873 -0.000000 0.178299 0.305161 -0.356621
7.520000 -56.375822 666.214695 -0.000000 0.469375 0.275888 -0.109444 -74.799096 -141.001984 -0.000000 0.180374 0.315514 -0.356658
7.525000 -47.620086 683.436704 -0.000000 0.466920 0.264958 -0.109332 -60.382569 -124.230286 -0.000000 0.183061 0.325835 -0.356661
7.530000 -34.821793 700.382638 -0.000000 0.463758 0.254342 -0.109294 -46.240229 -109.380556 -0.000000 0.186352 0.336182 -0.356753
7.535000 -19.243246 716.272983 -0.000000 0.460114 0.244136 -0.109420 -33.031788 -96.712506 -0.000000 0.190296 0.346230 -0.356863
7.540000 -0.494926 730.459550 -0.000000 0.455969 0.234193 -0.109635 -21.454040 -86.220226 -0.000000 0.194753 0.356203 -0.356857
7.545000 20.676988 742.352891 -0.000000 0.451278 0.224555 -0.109772 -11.840219 -77.837492 -0.000000 0.199766 0.365988 -0.356967
7.550000 43.342071 751.545289 -0.000000 0.445965 0.215245 -0.109667 -4.381277 -71.379500 -0.000000 0.205234 0.375421 -0.356998
7.555000 67.438098 757.760364 -0.000000 0.440244 0.206201 -0.109563 0.760259 -66.586388 -0.000000 0.211263 0.384716 -0.357067
7.560000 92.065069 760.914403 -0.000000 0.434024 0.197533 -0.109463 3.628835 -63.176273 -0.000000 0.217842 0.393731 -0.357025
7.565000 116.311527 761.082296 -0.000000 0.427376 0.189287 -0.109336 4.362164 -60.806509 -0.000000 0.224828 0.402443 -0.356940
7.570000 139.602602 758.409421 -0.000000 0.420279 0.181531 -0.109270 3.121776 -59.008022 -0.000000 0.232220 0.410762 -0.356748
7.575000 162.417355 752.915696 -0.000000 0.412802 0.174272 -0.109213 0.049671 -57.163903 -0.000000 0.240457 0.418566 -0.357842
7.580000 182.863006 745.178087 -0.000000 0.404917 0.167551 -0.109032 -4.421783 -54.568773 -0.000000 0.248571 0.426031 -0.357530
7.585000 200.962302 735.457301 -0.000000 0.396754 0.161183 -0.108679 -9.895511 -50.525729 -0.000000 0.256711 0.432990 -0.356009
7.590000 218.351941 723.431533 -0.000000 0.388350 0.155401 -0.108486 -16.000657 -44.329230 -0.000000 0.265542 0.439826 -0.355637
7.595000 233.901116 709.382830 -0.000000 0.379655 0.150188 -0.108242 -22.124479 -35.355511 -0.000000 0.274905 0.445361 -0.355779
7.600000 246.889719 693.485761 -0.000000 0.370710 0.145560 -0.107967 -27.681226 -23.120121 -0.000000 0.284107 0.450356 -0.354682
7.605000 259.128297 674.997780 -0.000000 0.361539 0.141534 -0.107657 -32.150974 -7.256169 -0.000000 0.293941 0.454937 -0.354390
7.610000 268.340680 654.662143 -0.000000 0.352180 0.138160 -0.107419 -34.905502 12.110127 -0.000000 0.303470 0.458662 -0.354102
7.615000 275.497507 632.080120 -0.000000 0.342761 0.135436 -0.107156 -35.481469 34.619212 -0.000000 0.313230 0.461746 -0.354027
7.620000 280.430450 607.389616 -0.000000 0.333134 0.133058 -0.106931 -33.544694 59.521178 -0.000000 0.322994 0.464232 -0.354209
7.625000 282.520377 581.159778 -0.000000 0.323439 0.131659 -0.106715 -29.080024 85.727199 -0.000000 0.332558 0.466126 -0.354477
7.630000 282.187121 553.713331 -0.000000 0.313671 0.130953 -0.106385 -22.293259 111.953408 -0.000000 0.342014 0.467383 -0.354652
7.635000 279.559450 525.659760 -0.000000 0.303799 0.130837 -0.106052 -13.730469 136.898810 -0.000000 0.351254 0.468159 -0.354963
7.640000 274.576914 497.722343 -0.000000 0.294097 0.131529 -0.105584 -4.274203 159.718302 -0.000000 0.360173 0.468380 -0.355509
7.645000 268.394106 469.745057 -0.000000 0.283931 0.132957 -0.105890 5.509927 180.380296 -0.000000 0.368662 0.468242 -0.355983
7.650000 260.708899 441.948980 -0.000000 0.274111 0.134911 -0.105631 14.768237 199.596872 -0.000000 0.376869 0.467381 -0.356404
7.655000 252.004607 413.544813 -0.000000 0.264740 0.137716 -0.105667 23.188484 218.510908 -0.000000 0.384763 0.465693 -0.356862
7.660000 242.951997 382.982995 -0.000000 0.255511 0.141019 -0.105554 30.976645 238.239207 -0.000000 0.392361 0.462786 -0.357797
7.665000 232.510215 349.287706 -0.000000 0.246576 0.144942 -0.105571 37.575649 259.706747 -0.000000 0.399318 0.459869 -0.358271
7.670000 220.781847 310.575023 -0.000000 0.238092 0.149701 -0.105512 43.101282 283.337151 -0.000000 0.405830 0.456417 -0.358718
7.675000 206.871001 265.785151 -0.000000 0.230115 0.154805 -0.105522 46.901398 309.269644 -0.000000 0.411660 0.452327 -0.359158
7.680000 190.648063 213.803520 -0.000000 0.222626 0.160731 -0.105527 49.137221 337.165938 -0.000000 0.417050 0.447145 -0.359760
7.685000 170.959935 155.138837 -0.000000 0.215715 0.166826 -0.105566 48.832387 366.471444 -0.000000 0.422378 0.441549 -0.360535
7.690000 147.255849 90.938496 -0.000000 0.209529 0.173550 -0.105612 45.513516 396.187906 -0.000000 0.427455 0.435322 -0.360739
7.695000 119.187136 23.366670 -0.000000 0.204115 0.180617 -0.105158 38.596778 425.131907 -0.000000 0.432396 0.428552 -0.360527
7.700000 86.787321 -44.895920 -0.000000 0.199262 0.188056 -0.104963 28.376057 452.092315 -0.000000 0.437326 0.421111 -0.360437
7.705000 50.382838 -110.519113 -0.000000 0.195061 0.195503 -0.104624 14.620736 476.212452 -0.000000 0.442196 0.412950 -0.360574
7.710000 10.932902 -170.253017 -0.000000 0.191418 0.202933 -0.104322 -2.510100 497.022322 -0.000000 0.446956 0.404318 -0.360513
7.715000 -30.137545 -221.242536 -0.000000 0.188305 0.210588 -0.104130 -22.160581 514.458311 -0.000000 0.451481 0.395247 -0.360350
7.720000 -71.092373 -261.211577 -0.000000 0.185648 0.218560 -0.104005 -43.005229 528.874148 -0.000000 0.455631 0.385521 -0.360296
7.725000 -109.746296 -288.726105 -0.000000 0.182649 0.226942 -0.104683 -63.942088 541.030007 -0.000000 0.459460 0.375724 -0.360361
7.730000 -143.233965 -303.580148 -0.000000 0.180502 0.235888 -0.104807 -84.858134 551.855544 -0.000000 0.462695 0.365834 -0.360306
7.735000 -170.003159 -306.067975 -0.000000 0.178572 0.245217 -0.105051 -103.739699 562.602954 -0.000000 0.465414 0.355445 -0.360150
7.740000 -188.386837 -297.541064 -0.000000 0.177020 0.254952 -0.105294 -120.046259 574.213964 -0.000000 0.467554 0.344733 -0.360115
7.745000 -197.385244 -280.137106 -0.000000 0.176001 0.264974 -0.105424 -133.722540 587.228601 -0.000000 0.469308 0.333967 -0.359941
7.750000 -197.212737 -256.206174 -0.000000 0.175126 0.275282 -0.105703 -144.333755 601.963740 -0.000000 0.470472 0.323193 -0.359749
7.755000 -188.764924 -228.281776 -0.000000 0.174777 0.285560 -0.105946 -151.897868 618.442429 -0.000000 0.471052 0.312170 -0.359690
7.760000 -173.846830 -198.471007 -0.000000 0.175131 0.296179 -0.106275 -155.619449 636.772703 -0.000000 0.471121 0.300997 -0.359609
7.765000 -154.099396 -168.919637 -0.000000 0.176050 0.306763 -0.106478 -156.000170 656.602930 -0.000000 0.470468 0.289679 -0.359738
7.770000 -131.449944 -141.107172 -0.000000 0.177621 0.317381 -0.106923 -153.123848 677.518350 -0.000000 0.469407 0.278401 -0.359919
7.775000 -107.703720 -115.944642 -0.000000 0.179898 0.328073 -0.107236 -147.045561 698.983118 -0.000000 0.467824 0.267291 -0.359681
7.780000 -84.281104 -93.926683 -0.000000 0.182758 0.338620 -0.107634 -138.431668 720.260960 -0.000000 0.465500 0.256482 -0.359666
7.785000 -62.376030 -75.059151 -0.000000 0.186267 0.349053 -0.107945 -127.215169 740.763424 -0.000000 0.462626 0.245934 -0.359534
7.790000 -42.756355 -59.223774 -0.000000 0.190245 0.359301 -0.108169 -113.931347 759.863489 -0.000000 0.459066 0.235686 -0.359319
7.795000 -25.954325 -46.182837 -0.000000 0.194873 0.369427 -0.108472 -98.646130 777.148131 -0.000000 0.455015 0.225666 -0.359126
7.800000 -12.263838 -35.698720 -0.000000 0.200168 0.379395 -0.108935 -81.366452 792.261412 -0.000000 0.450469 0.215748 -0.358961
7.805000 -1.759262 -27.506938 -0.000000 0.205854 0.389132 -0.109289 -63.491934 804.650528 -0.000000 0.445477 0.206275 -0.358856
7.810000 5.524041 -21.202274 -0.000000 0.212013 0.398427 -0.109644 -44.679471 813.865849 -0.000000 0.439882 0.197135 -0.358747
7.815000 9.707158 -16.282999 -0.000000 0.218585 0.407452 -0.110054 -24.780054 819.410253 -0.000000 0.433825 0.188326 -0.358644
7.820000 11.069755 -12.133048 -0.000000 0.225705 0.416210 -0.110490 -4.094196 820.905671 -0.000000 0.427320 0.180052 -0.358603
7.825000 10.052066 -8.035778 -0.000000 0.233218 0.424335 -0.110861 16.293183 818.197558 -0.000000 0.420358 0.172305 -0.358476
7.830000 7.212227 -3.262635 -0.000000 0.241016 0.432153 -0.111355 36.443237 811.341261 -0.000000 0.413032 0.164965 -0.358316
7.835000 3.219251 2.871296 -0.000000 0.249247 0.439409 -0.111817 55.753621 800.566647 -0.000000 0.405306 0.158255 -0.358221
7.840000 -1.202414 10.901477 -0.000000 0.258130 0.446210 -0.111559 74.636784 786.159288 -0.000000 0.397275 0.152038 -0.358182
7.845000 -5.404822 21.107403 -0.000000 0.266746 0.452381 -0.112309 90.854974 768.689164 -0.000000 0.388909 0.146321 -0.358120
